<?xml version="1.0" encoding="UTF-8" standalone="no"?>
<!DOCTYPE svg PUBLIC "-//W3C//DTD SVG 1.1//EN" "http://www.w3.org/Graphics/SVG/1.1/DTD/svg11.dtd">
<svg width="100%" height="100%" viewBox="0 0 216 200" version="1.1" xmlns="http://www.w3.org/2000/svg" xmlns:xlink="http://www.w3.org/1999/xlink" xml:space="preserve" xmlns:serif="http://www.serif.com/" style="fill-rule:evenodd;clip-rule:evenodd;stroke-linejoin:round;stroke-miterlimit:2;">
    <g transform="matrix(1.5,0,0,1.5,0,0)">
        <g transform="matrix(1,0,0,0.706767,-754,-273.519)">
            <path d="M787,398.673C787,392.23 783.303,387 778.75,387L762.25,387C757.697,387 754,392.23 754,398.673L754,508.327C754,514.77 757.697,520 762.25,520L778.75,520C783.303,520 787,514.77 787,508.327L787,398.673Z" style="fill:white;"/>
        </g>
        <g transform="matrix(1,0,0,0.721805,-643.271,-242.338)">
            <path d="M787,398.43C787,392.121 783.303,387 778.75,387L762.25,387C757.697,387 754,392.121 754,398.43L754,508.57C754,514.879 757.697,520 762.25,520L778.75,520C783.303,520 787,514.879 787,508.57L787,398.43Z" style="fill:white;"/>
        </g>
        <g transform="matrix(1.06452,0,0,1,-843.078,-379)">
            <path d="M911.5,379L927,410L896,410L911.5,379Z" style="fill:rgb(255,198,0);"/>
        </g>
        <g transform="matrix(0.707107,-0.707107,0.876571,0.876571,-869.581,213.841)">
            <path d="M787,393.655C787,389.982 783.303,387 778.75,387L762.25,387C757.697,387 754,389.982 754,393.655L754,513.345C754,517.018 757.697,520 762.25,520L778.75,520C783.303,520 787,517.018 787,513.345L787,393.655Z" style="fill:white;"/>
        </g>
        <g transform="matrix(1.29406,0,0,1.29406,-973.136,-581.323)">
            <circle cx="764.751" cy="539.249" r="12.751" style="fill:rgb(74,251,229);"/>
        </g>
    </g>
</svg>
